<svg xmlns="http://www.w3.org/2000/svg" width="252" height="322" viewBox="0 0 252 322"><defs><linearGradient id="a" x1="50.099%" x2="50.099%" y1="-.044%" y2="99.941%"><stop stop-color="#FFF" offset="0%"/><stop stop-color="#FFF" stop-opacity="0" offset="100%"/></linearGradient><linearGradient id="b" x1="49.829%" x2="49.829%" y1="-.044%" y2="99.941%"><stop stop-color="#FFF" offset="0%"/><stop stop-color="#FFF" stop-opacity="0" offset="100%"/></linearGradient><radialGradient id="c" cx="50.033%" cy="49.973%" r="75.169%" fx="50.033%" fy="49.973%" gradientTransform="matrix(.52203 0 0 1 .24 0)"><stop stop-color="#FFF" offset="0%"/><stop stop-color="#FFF" stop-opacity="0" offset="100%"/></radialGradient><linearGradient id="d" x1="50.032%" x2="50.032%" y1=".063%" y2="99.843%"><stop stop-color="#FFF" offset="0%"/><stop stop-color="#FFF" stop-opacity="0" offset="100%"/></linearGradient><linearGradient id="e" x1="49.842%" x2="49.842%" y1=".063%" y2="99.843%"><stop stop-color="#FFF" offset="0%"/><stop stop-color="#FFF" stop-opacity="0" offset="100%"/></linearGradient><radialGradient id="f" cx="50.044%" cy="50.157%" r="50.281%" fx="50.044%" fy="50.157%"><stop stop-color="#FFF" offset="0%"/><stop stop-color="#FFF" stop-opacity="0" offset="100%"/></radialGradient><radialGradient id="g" cx="49.782%" cy="50.157%" r="50.281%" fx="49.782%" fy="50.157%"><stop stop-color="#FFF" offset="0%"/><stop stop-color="#FFF" stop-opacity="0" offset="100%"/></radialGradient></defs><g fill="none" fill-rule="evenodd"><path fill="#F7E8D5" fill-rule="nonzero" d="M166.1 256.7s-1.5 3.2-4.6 7.1l-15.2-16.4c0-4.6-.5-8.9-1.9-12L124.5 174l45-96.8s26.4 10.6 33.4 33c0 0-12.2-10.1-18-8.5 0 0 20.4 17.1 21.4 36.8 0 0-9.2-10.9-16.7-11.9 0 0 14.5 17.6 14.9 34.8 0 0-5.9-9.5-12.3-10.2 0 0 16.7 20.8 9.1 39.9 0 0-5.7-11.1-11.1-11.4 0 0 7.3 14.6 1.4 39.4 0 0-2.9-10.2-7.9-12.8 0 0 4.9 25.4-.8 40.6 0 0-2.1-8-7.6-15.4 0 0 1.3 24.6-5.9 39.7-.1.1 1.8-9.1-3.3-14.5z"/><path fill="#C69A69" fill-rule="nonzero" d="M59.9 181.2s19.1 74.7 25.3 93.5c1.4 4.2 2.7 7.9 3.8 11.2 4.1 11.3 14.6 18.9 26.5 19.4 6.9.3 12.5-5.8 12.3-13.2l-2.5-98.5-65.4-12.4zM222 214.7c0 62.3-18.9 69.6-42.3 69.6s-42.3-24.6-42.3-55c0-75.9 18.9-84.2 42.3-84.2 23.4-.1 42.3 13.7 42.3 69.6z"/><path fill="#F7E8D5" fill-rule="nonzero" d="M59.8 296.2s1.9 8.6 5.8 18.2l9-9 16-16 2.5-62.4-69.4-81.1S1.1 163.2.5 186.7c0 0 9-13 15.1-13 0 0-15 21.9-10.7 41.2 0 0 5.9-12.9 12.9-15.9 0 0-9.2 20.9-5 37.5 0 0 3.1-10.8 9.1-13.1 0 0-10.5 24.5 2 40.9 0 0 2.5-12.3 7.6-13.9 0 0-3.1 16 9.3 38.3 0 0 0-10.6 4.2-14.5 0 0 2.1 25.8 11.7 38.9-.1-.1-.2-8.3 3.1-16.9z"/><path fill="#C69A69" fill-rule="nonzero" d="M208.7 321.1H187c-4.9 0-8.9-4-8.9-8.9 0-8.6 7-15.7 15.6-15.7h28.9v10.6c0 7.7-6.2 14-13.9 14z"/><path fill="#C69A69" fill-rule="nonzero" d="M155.2 196.5s19.1 74.7 25.3 93.5c1.4 4.2 2.7 7.9 3.8 11.2 4.1 11.3 14.6 18.9 26.5 19.4 6.9.3 12.5-5.8 12.3-13.2l-2.5-98.5-65.4-12.4z"/><path fill="#FECC89" fill-rule="nonzero" d="M122.7 178.1s-17.5 78-23.3 97.7c-6.6 22.5-11.2 31.3-11.2 31.3l-19.4 1.3c-7.1.5-13.5-5.1-13.6-12.8V193l67.5-14.9z"/><path fill="#FEE5D3" fill-rule="nonzero" d="M103.8 100.8c-2.9 0-5.3-2.4-5.3-5.3v-3.4c0-2.9 2.4-5.3 5.3-5.3s5.3 2.4 5.3 5.3v3.4c0 2.9-2.4 5.3-5.3 5.3z"/><path fill="#FEE5D3" fill-rule="nonzero" d="M93.8 101c-2.9 0-5.3-2.4-5.3-5.3v-3.4c0-2.9 2.4-5.3 5.3-5.3s5.3 2.4 5.3 5.3v3.4c0 2.9-2.4 5.3-5.3 5.3z"/><path fill="#FECC89" fill-rule="nonzero" d="M169.1 127.9h-1s-.1-20.1-.1-36.8c0-1 .1-2.1.1-3.1-.1 0-.1 0-.2.1v-4.6c0-37.7-30.8-68.5-68.5-68.5S30.9 45.8 30.9 83.5c0 0 .3 68.8.5 68.9 4.8 60.7 47.3 110.8 104.2 126.8 10.9 6 22.1 11.2 33.5 15.7v-167z"/><path fill="#FECC89" fill-rule="nonzero" d="M100 221.1s2.5 2.5 6.6 5.3l9.3-20.4c-1.5-4.3-2.3-8.5-2-12l-.6-64.6-73.2-77.6S18.4 70.2 18.9 93.7c0 0 8.4-13.4 14.4-13.7 0 0-13.9 22.6-8.7 41.7 0 0 5.3-13.2 12.1-16.5 0 0-8.1 21.3-3.1 37.7 0 0 2.6-10.9 8.4-13.6 0 0-9.3 25 4 40.7 0 0 1.9-12.4 6.9-14.3 0 0-2.3 16.2 11.1 37.8 0 0-.5-10.6 3.5-14.7 0 0 3.3 25.7 13.6 38.3 0 0-.5-8.3 2.3-17 0 0 6.6 23.7 18.2 35.8 0 0-4.7-8.1-1.6-14.8z"/><path fill="#FECC89" fill-rule="nonzero" d="M88.2 218.2s-2.7 2.3-7 4.8l-7.6-21c1.8-4.2 3-8.3 3-11.8l5.8-64.3 79.3-71.4s20.1 20.1 17.7 43.5c0 0-7.2-14-13.3-14.8 0 0 12 23.7 5.3 42.2 0 0-4.2-13.6-10.7-17.4 0 0 6.4 21.9.1 37.8 0 0-1.7-11.1-7.3-14.2 0 0 7.2 25.7-7.3 40.3 0 0-.9-12.5-5.8-14.8 0 0 1 16.3-14.1 36.8 0 0 1.4-10.5-2.3-14.9 0 0-5.4 25.3-16.7 37 0 0 1.2-8.2-1-17.1 0 0-8.5 23.1-21 34.2.1-.2 5.5-7.9 2.9-14.9z"/><path fill="#FECC89" fill-rule="nonzero" d="M148.7 285s-1.9 3-5.4 6.5l-13.2-18.1c.6-4.6.6-8.8-.4-12.2l-12.3-63.4 56.3-90.6s24.9 13.7 29.1 36.8c0 0-10.9-11.5-16.9-10.6 0 0 18.1 19.4 16.8 39.1 0 0-7.8-11.9-15.1-13.8 0 0 12.2 19.3 10.6 36.3 0 0-4.7-10.2-11-11.6 0 0 14.1 22.7 4.2 40.7 0 0-4.3-11.8-9.7-12.6 0 0 5.5 15.4-3.4 39.3 0 0-1.6-10.5-6.3-13.7 0 0 1.8 25.8-5.7 40.2 0 0-1.2-8.2-5.7-16.2 0 0-1.7 24.6-10.7 38.7.1.1 3.2-8.8-1.2-14.8zm-83.3.6s2 2.9 5.6 6.4l12.6-18.5c-.7-4.5-.9-8.8.1-12.2l10.4-63.7-59-88.9s-24.5 14.4-28 37.7c0 0 10.5-11.8 16.6-11.1 0 0-17.6 19.9-15.7 39.6 0 0 7.5-12.1 14.7-14.2 0 0-11.6 19.6-9.5 36.6 0 0 4.4-10.3 10.6-11.9 0 0-13.4 23.1-3 40.8 0 0 4-11.9 9.3-12.9 0 0-5 15.6 4.5 39.1 0 0 1.3-10.5 5.9-13.9 0 0-1.1 25.9 6.9 40 0 0 .9-8.2 5.2-16.3 0 0 2.4 24.5 11.8 38.4.1-.1-3.2-8.9 1-15z"/><path fill="#FECC89" fill-rule="nonzero" d="M145.3 188.8c-15 .4-28.6 9.8-33.7 23.9-3.1 8.5-4.7 17.6-4.7 27.2 0 25.9 12.3 49 31.4 63.7 10.4 8 26.1 1.5 27.1-11.6 0-.5.1-1 .1-1.5V209c-.1-11.1-9.2-20.2-20.2-20.2z"/><path fill="#EEAD57" fill-rule="nonzero" d="M156.9 321.7h-22.5c-5.1 0-9.2-4.1-9.2-9.2 0-8.9 7.3-16.2 16.2-16.2h19c6.1 0 11 4.9 11 11-.1 7.9-6.6 14.4-14.5 14.4z"/><path fill="#FECC89" fill-rule="nonzero" d="M63 321h22.5c5.1 0 9.2-4.1 9.2-9.2 0-8.9-7.3-16.2-16.2-16.2h-19c-6.1 0-11 4.9-11 11 0 7.9 6.5 14.4 14.5 14.4z"/><path fill="#A47553" fill-rule="nonzero" d="M146.3 321.5H92.8c-11.3 0-20.5-9.2-20.5-20.5s9.2-20.5 20.5-20.5h53.5c29.8 0 54.1-24.3 54.1-54.1v-9.2c0-11.3 9.2-20.5 20.5-20.5s20.5 9.2 20.5 20.5v9.2c.1 52.4-42.6 95.1-95.1 95.1z"/><path fill="#A47553" fill-rule="nonzero" d="M200.3 304s-5.4 3.9-7.9 5.4v-10.7c1-2.5 1.6-4.9 1.5-6.9l2.1-37.2 44.3-42.7s12 11.2 11.1 24.7c0 0-4.5-7.9-7.9-8.3 0 0 7.4 13.4 3.9 24.2 0 0-2.7-7.7-6.5-9.8 0 0 4.1 12.5.8 21.8 0 0-1.2-6.4-4.5-8 0 0 4.7 14.7-3.4 23.4 0 0-.7-7.2-3.6-8.4 0 0 .9 9.4-7.4 21.5 0 0 .6-6.1-1.6-8.5 0 0-2.6 14.7-8.9 21.7 0 0 .5-4.7-.9-9.8 0 0-5.2 10.4-2.8 18.7-.2-.3-7.5-3.9-8.3-11.1z"/><path fill="#EAB87D" fill-rule="nonzero" d="M40 165s1.1 1.5 3.1 3.1l6.1-9.8c-.5-2.3-.7-4.5-.2-6.3l3.8-33.2-32.6-44.5s-12.3 8-13.6 20.1c0 0 5.1-6.3 8.3-6.1 0 0-8.6 10.7-7.1 20.8 0 0 3.6-6.4 7.3-7.7 0 0-5.5 10.4-4 19.1 0 0 2-5.4 5.2-6.4 0 0-6.4 12.2-.6 21.1 0 0 1.8-6.2 4.5-6.9 0 0-2.2 8.1 3.3 20.1 0 0 .4-5.5 2.7-7.3 0 0 .1 13.4 4.5 20.5 0 0 .3-4.3 2.3-8.6 0 0 1.8 12.6 7 19.5-.1.3-2.1-4.2 0-7.5zm104.4 3s-1.1 1.5-3.1 3.2l-6.1-9.9c.5-2.3.7-4.6.2-6.3l-3.9-33.3L164.2 77s12.4 8.1 13.6 20.2c0 0-5.2-6.4-8.3-6.1 0 0 8.6 10.8 7.2 20.9 0 0-3.6-6.5-7.3-7.7 0 0 5.6 10.5 4.1 19.2 0 0-2-5.5-5.2-6.4 0 0 6.4 12.3.6 21.2 0 0-1.8-6.3-4.5-6.9 0 0 2.2 8.2-3.3 20.2 0 0-.4-5.5-2.7-7.3 0 0-.1 13.4-4.5 20.6 0 0-.3-4.3-2.3-8.6 0 0-1.9 12.7-7 19.6-.1-.2 1.8-4.7-.2-7.9z"/><path fill="#FECC89" fill-rule="nonzero" d="M27.5 87v.5l65.4 54.9 66-54.9c.1-2.5.1-3.9.1-3.9 1.1-36.1-27.6-66.5-63.7-67.6-36.1-1.1-66.5 27.6-67.6 63.7l-.1 4.4c-.1 0-.1 0-.2-.1.1 1 .1 2 .1 3z"/><path fill="#FECC89" fill-rule="nonzero" d="M81.3 220.3s-2.6 2.3-7 4.7l-7.6-20.9c1.8-4.2 3-8.3 2.9-11.7l5.8-63.9 78.8-70.9s20 19.9 17.6 43.2c0 0-7.2-13.9-13.2-14.7 0 0 12 23.5 5.3 41.9 0 0-4.2-13.5-10.7-17.3 0 0 6.3 21.7.1 37.6 0 0-1.7-11-7.3-14.1 0 0 7.2 25.5-7.2 40 0 0-.9-12.4-5.7-14.7 0 0 1 16.2-14 36.5 0 0 1.4-10.4-2.3-14.8 0 0-5.4 25.2-16.6 36.8 0 0 1.2-8.1-.9-17 0 0-8.4 23-20.9 34 .1-.2 5.4-7.8 2.9-14.7z"/><path fill="#FECC89" fill-rule="nonzero" d="M105 220.3s2.6 2.3 7 4.7l7.6-20.9c-1.8-4.2-3-8.3-2.9-11.7l-5.8-63.9-78.9-71s-20 19.9-17.6 43.2c0 0 7.2-13.9 13.2-14.7 0 0-12 23.5-5.3 41.9 0 0 4.2-13.5 10.7-17.3 0 0-6.3 21.7-.1 37.6 0 0 1.7-11 7.3-14.1 0 0-7.2 25.5 7.2 40 0 0 .9-12.4 5.7-14.7 0 0-1 16.2 14 36.5 0 0-1.4-10.4 2.3-14.8 0 0 5.4 25.2 16.6 36.8 0 0-1.2-8.1.9-17 0 0 8.4 23 20.9 34 0-.1-5.4-7.7-2.8-14.6zM27.6 34.1s-3.9-.2-10.2 1.6l38.8 38.8 51.3-56.9S91.9 1.9 73.6 3.8c0 0 5.9.7 6.6 5.4 0 0-13.5-4.4-27.9.8 0 0 10.6 3.3 13.6 8.4 0 0-17.1-5-29.5-.1 0 0 8.6 1.3 11.1 5.7 0 0-20-5.6-31.4 5.7-.1-.1 9.7.6 11.5 4.4z"/><path fill="#FECC89" fill-rule="nonzero" d="M29.2 116.2s-.7 3.9.4 10.3l43.2-33.9-50.4-57.7S4.9 48.5 4.6 66.9c0 0 6.9-10.2 11.7-10.2 0 0-11.5 17.2-8 32.2 0 0 4.5-10.1 9.9-12.5 0 0-7 16.3-3.6 29.3 0 0 2.4-8.4 7-10.3 0 0-8 19.2 1.9 31.8-.1-.1 1.7-9.7 5.7-11zm132.4-82.1s3.9-.2 10.2 1.6L133 74.5 81.7 17.6S97.3 1.9 115.6 3.8c0 0-5.9.7-6.6 5.4 0 0 13.5-4.4 27.9.8 0 0-10.6 3.3-13.6 8.4 0 0 17.1-5 29.5-.1 0 0-8.6 1.3-11.1 5.7 0 0 20-5.6 31.4 5.7.1-.1-9.7.6-11.5 4.4z"/><path fill="#FECC89" fill-rule="nonzero" d="M160 116.2s.7 3.9-.4 10.3l-43.2-33.9 50.4-57.7s17.5 13.6 17.8 32c0 0-6.9-10.2-11.7-10.2 0 0 11.5 17.2 8 32.2 0 0-4.5-10.1-9.9-12.5 0 0 7 16.3 3.6 29.3 0 0-2.4-8.4-7-10.3 0 0 8 19.2-1.9 31.8.2-.1-1.7-9.7-5.7-11z"/><path fill="#E69E5D" fill-rule="nonzero" d="M124.2 86.8l-6.9.1c-3.3 0-6.5 1.7-8.6 4.4l-3.4 4.4-10-4.7 6.4-6.1 10.4-2.8 12.1 4.7zm-61.7.9l6.9-.1c3.3 0 6.5 1.5 8.7 4.1l3.6 4.3 9.9-5-4.6-5.5-12.4-3-12.1 5.2z"/><path fill="#E69E5D" fill-rule="nonzero" d="M120.4 61.1s15.7-.3 28.5 4.8c0 0-7.6 6.3-11.1 5.9l9.3.5s-7.3 17.8-24.6 19l-1-14.8-1.1-15.4zm-54.4 0s-16.9-.5-29.7 4.5c0 0 7.6 6.3 11.1 5.9l-9.3.5s7.3 17.8 24.6 19l1-14.8L66 61.1z"/><path fill="#CF824D" fill-rule="nonzero" d="M104.2 84.5s-2.1-15.1-10.4-24.8c0 0-7.5 6.2-10.6 25.3l10.4 5.1 10.6-5.6z"/><path fill="#E69E5D" fill-rule="nonzero" d="M114 64.4c.1 8.5-5.2 13.8-9.7 16.1.4-7.2 1.8-12.8 9.7-16.1z"/><path fill="#FFDB9F" fill-rule="nonzero" d="M134.4 48.9c-2.9 6-6.8 8.5-9.4 9.1 2.6-5 5.1-8.5 9.4-9.1z"/><path fill="#FFF" fill-rule="nonzero" d="M124.2 43.9c-1.2 9.4-4.3 14.4-6.7 16.4 1.2-7.9 2.7-13.8 6.7-16.4z"/><path fill="#FFDB9F" fill-rule="nonzero" d="M51.3 50c4.3.4 6.9 3.9 9.7 8.8-2.7-.6-6.7-3-9.7-8.8z"/><path fill="#FFF" fill-rule="nonzero" d="M81.5 120.3c-34.3-5.5 3.1-33.1 12-33.6 9-.4 42.8 27.6 11 33.2-5.3 6.8-17.3 7-23 .4zM61.3 44.7c4.1 2.4 5.8 8.3 7.2 16.2-2.4-1.9-5.7-6.8-7.2-16.2z"/><path fill="#E69E5D" fill-rule="nonzero" d="M72.9 65.2c8 3.1 9.6 8.6 10.1 15.8-4.5-2.2-9.9-7.3-10.1-15.8zm30 11.1c2.3-20.2 16.5-15.2 13.8-37.4-.9 15-17.8 13.1-13.8 37.4z"/><path fill="#E69E5D" fill-rule="nonzero" d="M84.7 77.1C81.8 57 67.8 62.4 69.8 40.2c1.3 15 18.1 12.6 14.9 36.9z"/><path fill="#CF824D" fill-rule="nonzero" d="M93.2 22.8c5.3 15.3 3.9 47.8.3 58.2-2.7-10.3-5.4-49.9-.3-58.2z"/><path fill="url(#a)" fill-rule="nonzero" d="M155.6 110.8s.7.7 1.3 1.8l-6.7 2.3c-1.3-.4-2.5-.7-3.6-.6l-19.7-.5-20.1-19.5s6.7-5.5 13.8-5.3c0 0-4.5 2.1-4.9 3.7 0 0 7.6-3.5 13.2-2 0 0-4.3 1.3-5.6 3 0 0 6.9-2 11.7-.6 0 0-3.5.6-4.6 2.1 0 0 8.1-2.3 12.2 1.3 0 0-3.9.4-4.7 1.7 0 0 5.1-.5 11 3.1 0 0-3.2-.2-4.7.8 0 0 7.7 1 11 3.8 0 0-2.5-.2-5.3.5 0 0 6.9 1.9 10 4.9.1 0-2.1-1.2-4.3-.5z" opacity=".54"/><path fill="url(#b)" fill-rule="nonzero" d="M31.6 110.8s-.7.7-1.3 1.8l6.7 2.3c1.3-.4 2.5-.7 3.6-.6l19.7-.5 20.1-19.5s-6.7-5.5-13.8-5.3c0 0 4.5 2.1 4.9 3.7 0 0-7.6-3.5-13.2-2 0 0 4.3 1.3 5.6 3 0 0-6.9-2-11.7-.6 0 0 3.5.6 4.6 2.1 0 0-8.1-2.3-12.2 1.3 0 0 3.9.4 4.7 1.7 0 0-5.1-.5-11 3.1 0 0 3.2-.2 4.7.8 0 0-7.7 1-11 3.8 0 0 2.5-.2 5.3.5 0 0-6.9 1.9-10 4.9-.2 0 2.1-1.2 4.3-.5z" opacity=".54"/><path fill="#EFDDC5" fill-rule="nonzero" d="M101.2 105.1l-2.4 5.1-2.2-3.9-2.9 5.7-2.8-5.4-2.3 3.7-2.2-5.4 3.4-1.9 3.8-6 3.7 5.9z"/><path fill="#2B170D" fill-rule="nonzero" d="M93.6 89c-.9 0-1.8.8-1.8 1.8l.1 5.2c0 1 .8 1.9 1.7 1.9.9 0 1.8-.8 1.8-1.8l-.1-5.2c0-.9-.8-1.8-1.7-1.9z"/><path fill="#DB813D" fill-rule="nonzero" d="M75.9 91.2c-12.8-1.1-19.2 17.6-26.5 21.7 12.7.2 18.2-18.4 26.5-21.7zm34.5-.6c8.4 3.1 14.4 21.5 27.2 20.9-7.6-3.8-14.5-22.4-27.2-20.9z"/><path fill="#F37546" fill-rule="nonzero" d="M94.8 89.7c-5.4.4-9.1-4.5-9.1-4.5l3.6-2.2c2.7-1.7 6.1-1.7 8.9-.1l3.5 2-6.9 4.8z"/><path fill="#2B170D" fill-rule="nonzero" d="M100.5 84.2c-.5 0-.9.2-1.3.5-2 1.8-3.5 3-5.4 4.1-2.1-1.4-4.1-2.9-5.7-4-.8-.5-1.9-.3-2.4.5s-.3 2 .5 2.6c1.6 1.2 3.8 3 6.7 4.8.4.3 1 .3 1.4.1 3-1.3 4.9-3.2 7.2-5.2 1.1-1.1.5-3.3-1-3.4z"/><path fill="#B67142" fill-rule="nonzero" d="M121 89c-3.3-.7-9.9-6.9-9.9-6.9s2.4-6.1 5.1-8.7c5.3-5.3 10.1-4.9 13-4.3 5.1 1 8.1 7 8.1 7s-1.2 8.8-6.5 11.5c-2.9 1.4-6.7 2.1-9.8 1.4z"/><path fill="#EDEA61" fill-rule="nonzero" d="M114.1 79.7s2.6-3 3.5-4.1c1.6-1.9 3.5-2.9 6.8-4 8.2-2.7 10 5.1 10 5.1s-2 8.1-8.7 10.1c-6.8 2-10-3.9-11.6-7.1z"/><path fill="#010101" fill-rule="nonzero" d="M129.5 71.2c.2.1.4.1.6.2.5 1.2.8 2.5.8 3.9.1 4.8-3.2 8.8-7.3 8.8-3.6.1-6.6-2.9-7.4-6.8 1.7-2.2 3.6-4.1 5.7-5.4 2.3-1.2 5.1-1.5 7.6-.7z"/><path fill="#FFF" fill-rule="nonzero" d="M123.1 77.4c0 2.5 1.2 4.5 1.2 4.5s1.1-2 1-4.5c0-2.5-1.2-4.5-1.2-4.5s-1.1 2-1 4.5z"/><path fill="#B67142" fill-rule="nonzero" d="M66.2 89.8c3.2-.8 9.7-7.2 9.7-7.2s-2.6-6-5.3-8.6c-5.5-5.2-10.3-4.6-13.1-3.9-5.1 1.2-7.9 7.2-7.9 7.2s1.5 8.8 6.8 11.3c2.9 1.5 6.7 2.1 9.8 1.2z"/><path fill="#EDEA61" fill-rule="nonzero" d="M72.9 80.4S70 77.3 69 76.1c-1.7-1.9-3.3-2.5-6.7-3.5-8.2-2.5-9.9 5.4-9.9 5.4s2.2 8.1 9 9.9c6.9 1.7 10-4.4 11.5-7.5z"/><path fill="#010101" fill-rule="nonzero" d="M57.2 72.3c-.2.1-.4.2-.6.2-.5 1.2-.7 2.5-.7 3.9.1 4.8 3.5 8.7 7.6 8.6 3.6-.1 6.5-3.1 7.2-7-1.7-2.1-3.7-4-5.9-5.2-2.4-1.2-5.1-1.4-7.6-.5z"/><path fill="#FFF" fill-rule="nonzero" d="M63.8 78.3c0 2.5-1 4.5-1 4.5s-1.1-2-1.2-4.5c0-2.5 1-4.5 1-4.5s1.2 2 1.2 4.5zm42.7 36.1s1.9 12.4-1.9 19.7l-4.7-15.6 6.6-4.1z"/><path fill="#FFF" fill-rule="nonzero" d="M100.4 112.4s2.5 21.1-1.5 31l-7.6-25.1 9.1-5.9zm-19.7 2.4s-1.3 12.5 2.8 19.6l4-15.8-6.8-3.8z"/><path fill="#FFF" fill-rule="nonzero" d="M87.2 112.6s-2.4 21.1 1.7 31l7.5-25.2-9.2-5.8z"/><path fill="#FFF" fill-rule="nonzero" d="M96.6 128.2l-2.3 9.3-3.4-9.2 3.2-11.3z"/><path fill="#FFF" d="M150.1 110.2c-1.8-1-4.3-2.1-6.8-3.3-1.2-.6-2.5-1.1-3.6-1.7-1.2-.5-2.3-1-3.2-1.4-.3-.1-.6-.2-.8-.4-.3-.1-.5-.2-.8-.3-.5-.2-1.1-.4-1.6-.7-1-.4-2-.9-3-1.3s-2-.8-3.1-1.2c-1-.4-2.1-.8-3.3-1.3-1.1-.5-2.5-.9-3.8-1.4-1.4-.5-2.8-1.1-4.3-1.6s-2.9-1-4.3-1.5c-.7-.2-1.4-.5-2-.7-.7-.2-1.3-.4-1.9-.6-.9-.3-3.2-1-4.1-1.3-1-.3.7.1 4 1 .5.1 1 .3 1.5.4.3.1.6.2.8.2l.9.3c1.2.4 2.6.8 4 1.3.7.2 1.4.5 2.2.7.7.3 1.4.5 2.2.8.7.3 1.5.5 2.3.8l2.4.9c1.1.4 2.2.8 3.3 1.3 1.1.4 2.3.9 3.4 1.3 1.1.5 2.2.9 3.3 1.4 1.1.4 2.1.9 3.1 1.3 1.5.7 3.2 1.5 5 2.3 1.8.9 3.6 1.8 5.4 2.6.4.2.9.4 1.3.6l1.2.6c.8.4 1.5.8 2.1 1.1 1.2.6 2.1 1.1 2.5 1.3.8.9-.6.4-4.3-1.5zm6.3 10.5c-.5-.3-1-.7-1.6-1.1l-.9-.6-.9-.6c-1.2-.8-2.5-1.6-3.8-2.5-.3-.2-.7-.4-1-.6-.2-.1-.3-.2-.5-.3-.2-.1-.3-.2-.5-.3-.7-.4-1.3-.8-1.9-1.1-1.3-.7-2.4-1.4-3.4-2-.3-.2-.6-.4-.9-.5-.3-.2-.6-.3-.9-.5-.6-.3-1.2-.6-1.7-.9l-3.3-1.8c-1.1-.6-2.2-1.1-3.4-1.7-1.2-.5-2.3-1.1-3.6-1.7-1.3-.6-2.7-1.2-4.2-1.9-.8-.3-1.5-.7-2.3-1-.4-.2-.8-.3-1.2-.5l-.6-.3-.6-.2c-1.6-.6-3.3-1.2-4.8-1.8-.8-.3-1.5-.6-2.3-.8-.7-.2-1.4-.5-2.1-.7-1-.3-3.6-1.2-4.7-1.5-1.1-.4.8.1 4.5 1.3.5.2 1.1.3 1.7.5l.9.3c.3.1.7.2 1 .4 1.4.5 2.9 1 4.5 1.6.4.2.8.3 1.2.5l.6.2.6.3c.8.3 1.6.7 2.4 1 .8.4 1.7.7 2.5 1.1.9.4 1.8.7 2.7 1.2 1.2.6 2.4 1.1 3.7 1.7 1.2.6 2.5 1.1 3.7 1.8 1.2.6 2.4 1.3 3.6 1.9 1.2.6 2.3 1.2 3.4 1.8 1.6.9 3.5 2.1 5.4 3.2 1.9 1.2 3.9 2.5 5.7 3.7.5.3.9.6 1.3.9l1.2.9c.8.6 1.5 1.1 2.2 1.6 1.3.9 2.2 1.6 2.6 1.9 1 .6-.4-.2-4.3-2.9zm-20-2.6c-1.3-1.1-3.1-2.4-4.9-3.7-.9-.7-1.8-1.3-2.7-1.9-.9-.6-1.7-1.1-2.4-1.6-.2-.1-.4-.3-.6-.4-.2-.1-.4-.3-.6-.4-.4-.3-.8-.5-1.2-.7-.8-.5-1.5-1-2.3-1.4-.7-.5-1.5-.9-2.3-1.4-.8-.5-1.6-.9-2.5-1.4-.9-.5-1.9-1-2.9-1.6-.5-.3-1.1-.6-1.6-.9-.3-.1-.5-.3-.8-.4-.3-.2-.6-.3-.8-.4-1.1-.6-2.2-1.1-3.3-1.6-.5-.3-1.1-.5-1.6-.8l-1.5-.6c-.7-.3-2.5-1.1-3.2-1.4-.8-.3.6.1 3.2 1.2.4.2.8.3 1.2.5.2.1.4.2.7.3.2.1.5.2.7.3.9.4 2 .9 3.1 1.5.6.3 1.1.5 1.7.8.5.3 1.1.6 1.7.9.6.3 1.1.6 1.7.9.6.3 1.2.6 1.8 1 .8.5 1.7 1 2.5 1.5.9.5 1.7 1 2.6 1.5.8.5 1.7 1 2.5 1.6.8.5 1.6 1 2.3 1.5 1.1.8 2.4 1.7 3.7 2.6l3.9 3c.3.2.6.5.9.7.3.2.6.5.8.7.5.4 1 .9 1.5 1.2.9.7 1.5 1.3 1.8 1.5.6.2-.4-.5-3.1-2.6zm.7 13.7c-1.3-1.5-3.1-3.4-4.9-5.2-.9-1-1.8-1.9-2.7-2.7l-2.4-2.4-.6-.6-.6-.6c-.4-.4-.8-.8-1.2-1.1-.8-.7-1.5-1.4-2.3-2.2-.8-.7-1.5-1.4-2.3-2.1-.8-.7-1.6-1.4-2.5-2.2-.9-.8-1.9-1.6-3-2.5-1.1-.9-2.2-1.9-3.3-2.8-1.1-.9-2.3-1.8-3.4-2.7-.5-.4-1.1-.9-1.6-1.3s-1-.8-1.5-1.1c-.7-.5-2.6-1.9-3.3-2.5-.8-.6.6.3 3.3 2.2l1.2.9c.2.2.4.3.7.5.2.2.5.4.7.5 1 .7 2 1.6 3.2 2.5.6.5 1.1.9 1.7 1.4.6.5 1.1.9 1.7 1.4l1.8 1.5c.6.5 1.2 1 1.9 1.6.8.7 1.7 1.5 2.6 2.3.9.8 1.8 1.5 2.6 2.3.8.8 1.7 1.6 2.5 2.3.8.8 1.6 1.5 2.3 2.2 1.1 1.1 2.4 2.4 3.7 3.8 1.3 1.4 2.6 2.9 3.9 4.2.3.3.6.7.9 1 .3.3.6.7.8 1 .5.6 1 1.2 1.5 1.7.9 1 1.5 1.7 1.8 2 .5.6-.5-.3-3.2-3.3zm-99.3-19.9c1.8-1 4.2-2.2 6.7-3.5l3.6-1.8c1.1-.6 2.2-1.1 3.2-1.5.3-.1.5-.3.8-.4.3-.1.5-.2.8-.4.5-.2 1.1-.5 1.6-.7 1-.5 2-.9 3-1.4 1-.5 2-.9 3-1.3s2.1-.9 3.2-1.4c1.1-.5 2.4-1 3.8-1.5s2.8-1.1 4.2-1.7c1.4-.5 2.9-1.1 4.3-1.6.7-.3 1.4-.5 2-.7.6-.2 1.3-.4 1.9-.6.9-.3 3.2-1.1 4.1-1.4 1-.3-.7.1-4 1.2-.5.2-1 .3-1.5.5-.3.1-.5.2-.8.3l-.9.3c-1.2.4-2.5.9-4 1.4-.7.3-1.4.5-2.1.8-.7.3-1.4.6-2.2.9-.7.3-1.5.6-2.2.9-.8.3-1.6.6-2.4 1-1.1.4-2.2.9-3.3 1.4-1.1.5-2.2.9-3.3 1.4l-3.3 1.5c-1.1.5-2.1.9-3 1.4-1.5.7-3.2 1.6-5 2.5-1.8.9-3.6 1.9-5.3 2.8-.4.2-.8.4-1.2.7-.4.2-.8.4-1.2.7-.7.4-1.4.8-2 1.2-1.2.7-2.1 1.2-2.5 1.4-.9.2.4-.4 4-2.4zm-5.9 10.6c.5-.4 1-.7 1.5-1.1.3-.2.5-.4.8-.6l.9-.6c1.2-.8 2.5-1.7 3.8-2.6.3-.2.6-.4 1-.7.2-.1.3-.2.5-.3.2-.1.3-.2.5-.3.6-.4 1.3-.8 1.9-1.2 1.2-.8 2.4-1.5 3.4-2.1l.9-.6c.3-.2.6-.3.9-.5.6-.3 1.1-.6 1.7-1 1.1-.6 2.2-1.2 3.3-1.9l3.3-1.8c1.1-.6 2.3-1.2 3.5-1.8 1.2-.7 2.7-1.3 4.2-2 .8-.4 1.5-.7 2.3-1.1l1.2-.6.6-.3.6-.3c1.6-.7 3.2-1.3 4.8-2 .8-.3 1.5-.6 2.2-.9.7-.3 1.4-.5 2.1-.8 1-.4 3.6-1.3 4.6-1.7 1.1-.4-.8.1-4.5 1.4-.5.2-1.1.4-1.7.6l-.9.3c-.3.1-.6.3-1 .4-1.3.5-2.8 1.1-4.4 1.8-.4.2-.8.3-1.2.5l-.6.2-.6.3c-.8.4-1.6.7-2.4 1.1-.8.4-1.6.8-2.5 1.2-.8.4-1.7.8-2.6 1.3l-3.6 1.8c-1.2.6-2.5 1.2-3.7 1.9-1.2.7-2.4 1.3-3.5 2-1.2.7-2.3 1.3-3.3 1.9-1.6 1-3.4 2.2-5.3 3.4-1.9 1.3-3.8 2.7-5.6 3.9-.4.3-.9.6-1.3.9l-1.2.9c-.8.6-1.5 1.1-2.1 1.6-1.3 1-2.2 1.7-2.6 2-1.1 1.2.3.3 4.1-2.6zm19.8-3.1c1.3-1.1 3-2.5 4.8-3.8.9-.7 1.8-1.3 2.6-2 .8-.6 1.6-1.2 2.3-1.7.2-.1.4-.3.6-.4.2-.1.4-.3.6-.4.4-.3.8-.5 1.2-.8.8-.5 1.5-1 2.2-1.5.7-.5 1.5-1 2.3-1.4l2.4-1.5c.8-.6 1.8-1.1 2.9-1.7.5-.3 1-.6 1.6-.9.3-.2.5-.3.8-.5.3-.2.5-.3.8-.5 1.1-.6 2.2-1.2 3.3-1.7.5-.3 1-.6 1.5-.8.5-.2 1-.5 1.4-.7.7-.3 2.5-1.2 3.2-1.5.8-.4-.6.1-3.1 1.3-.4.2-.8.3-1.2.5l-.6.3c-.2.1-.4.2-.7.3-.9.5-1.9 1-3 1.6-.5.3-1.1.6-1.6.9-.5.3-1.1.6-1.6 1-.6.3-1.1.7-1.7 1-.6.3-1.2.7-1.8 1.1-.8.5-1.6 1-2.5 1.5-.8.5-1.7 1-2.5 1.6-.8.6-1.6 1.1-2.4 1.6-.8.5-1.6 1-2.3 1.6-1.1.8-2.3 1.7-3.6 2.7-1.3 1-2.6 2.1-3.8 3.1-.3.2-.6.5-.9.7-.3.2-.6.5-.8.7-.5.5-1 .9-1.4 1.3-.9.8-1.5 1.3-1.7 1.5-.8.3.2-.3 2.7-2.5zm-.3 13.7c1.3-1.5 3-3.4 4.8-5.4.9-1 1.8-1.9 2.6-2.8.8-.9 1.6-1.7 2.3-2.4l.6-.6.6-.6 1.2-1.2 2.2-2.2c.7-.7 1.5-1.4 2.3-2.2.8-.7 1.6-1.5 2.4-2.3.8-.8 1.9-1.7 2.9-2.6 1-.9 2.1-1.9 3.2-2.9s2.2-1.9 3.3-2.8c.5-.4 1-.9 1.6-1.3l1.5-1.2c.7-.6 2.5-2 3.2-2.6.8-.6-.6.3-3.2 2.3l-1.2.9c-.2.2-.4.3-.7.5-.2.2-.5.4-.7.6-.9.8-2 1.6-3.1 2.6-.6.5-1.1.9-1.7 1.4-.5.5-1.1 1-1.6 1.5-.6.5-1.1 1-1.7 1.5-.6.5-1.2 1.1-1.8 1.6-.8.8-1.6 1.5-2.5 2.3-.8.8-1.7 1.6-2.5 2.4L63 120c-.8.8-1.6 1.5-2.3 2.3-1.1 1.1-2.3 2.5-3.6 3.9-1.3 1.4-2.6 2.9-3.8 4.3-.3.3-.6.7-.9 1-.3.3-.5.7-.8 1-.5.6-1 1.2-1.4 1.7-.8 1-1.5 1.8-1.7 2.1-.6.8.4-.1 2.9-3.2z"/><path fill="#CF824D" fill-rule="nonzero" d="M99.5 52s-4.2-10.4-4.6-14l.1-8.3c4.1 5.8 6 16.5 4.5 22.3zm-11.4.2s3.9-10.5 4.1-14.1l-.6-3.6c-1.9.1 1.5-4.8-.1-4.7-4.4 4.9-5 16.6-3.4 22.4z"/><path fill="#C69A69" fill-rule="nonzero" d="M17.1 9.5L30.7 36c1.6 3.1 5.3 4.3 8.4 2.7l26.5-13.6c4.9-2.5 4.3-9.8-.9-11.5L24.6.7c-5.4-1.6-10.1 3.9-7.5 8.8z"/><path fill="#EAB87D" fill-rule="nonzero" d="M64.1 19.1l4.5 2.4c1-3.1-.4-6.8-4-7.9L24.5.7C20-.7 15.9 3.1 16.4 7.3c12.8-1.1 30.3 2.9 47.7 11.8z"/><path fill="#FFE3C5" fill-rule="nonzero" d="M63.7 27l6.1-5.1S57 15.2 47.7 16.7l11.8 8.5c-7.3-3.1-17.1-6.7-23.9-6.5l10.9 8.5-6.6-.2 4.9 3.5-13.2-1.1c4.8 4.6 13.9 8.5 21.3 11.1l-13.6-1.1c6.1 7.1 20.2 10.3 20.2 10.3l-1.3-7.4c3.5 1.1 5.9 1.7 5.9 1.7l-1.8-9 7.2-5.2c-.1 0-2.3-1.2-5.8-2.8z"/><path fill="#C69A69" fill-rule="nonzero" d="M169.8 9.5L156.1 36c-1.6 3.1-5.3 4.3-8.4 2.7l-26.5-13.6c-4.9-2.5-4.3-9.8.9-11.5L162.2.7c5.4-1.6 10.1 3.9 7.6 8.8z"/><path fill="#EAB87D" fill-rule="nonzero" d="M122.7 19.1l-4.5 2.4c-1-3.1.4-6.8 4-7.9L162.3.7c4.5-1.4 8.6 2.4 8.1 6.6-12.8-1.1-30.3 2.9-47.7 11.8z"/><path fill="#FFE3C5" fill-rule="nonzero" d="M123.1 27l-6.1-5.1s12.8-6.7 22.1-5.2l-11.8 8.5c7.3-3.1 17.1-6.7 23.9-6.5l-10.9 8.5 6.6-.2-4.9 3.5 13.2-1.1c-4.8 4.6-13.9 8.5-21.3 11.1l13.6-1.1c-6.1 7.1-20.2 10.3-20.2 10.3l1.3-7.4c-3.5 1.1-5.9 1.7-5.9 1.7l1.8-9-7.2-5.2c.1 0 2.3-1.2 5.8-2.8z"/><ellipse cx="93.3" cy="44.6" fill="url(#c)" fill-rule="nonzero" opacity=".33" rx="59" ry="30.8"/><circle cx="122.5" cy="76.2" r="15.2" fill="#B67142" fill-rule="nonzero"/><circle cx="122.7" cy="76.1" r="11.9" fill="#EDEA61" fill-rule="nonzero" stroke="#BBB543" stroke-width=".47"/><circle cx="122.7" cy="76.1" r="11.9" fill="url(#d)" fill-rule="nonzero" opacity=".7"/><circle cx="122.7" cy="76.2" r="9.7" fill="#010101" fill-rule="nonzero" stroke="#FDF5A3" stroke-width=".47"/><circle cx="64.2" cy="76.2" r="15.2" fill="#B67142" fill-rule="nonzero"/><circle cx="64.5" cy="76.1" r="11.9" fill="#EDEA61" fill-rule="nonzero" stroke="#BBB543" stroke-width=".47"/><circle cx="64.5" cy="76.1" r="11.9" fill="url(#e)" fill-rule="nonzero" opacity=".7"/><circle cx="64.5" cy="76" r="9.9" fill="#010101" fill-rule="nonzero" stroke="#FDF5A3" stroke-width=".47"/><circle cx="122.7" cy="76" r="8.6" fill="url(#f)" fill-rule="nonzero" opacity=".5"/><circle cx="64.5" cy="76" r="8.6" fill="url(#g)" fill-rule="nonzero" opacity=".5"/><circle cx="61.2" cy="73.7" r="3.2" fill="#FFF" fill-rule="nonzero"/><circle cx="65.9" cy="70.3" r="1.6" fill="#FFF" fill-rule="nonzero"/><circle cx="119.5" cy="73.7" r="3.2" fill="#FFF" fill-rule="nonzero"/><circle cx="124.1" cy="70.3" r="1.6" fill="#FFF" fill-rule="nonzero"/><path stroke="#2B170D" stroke-width="2.351" d="M94.1 97.3c.5 4.5 8.7 14.7 18 6.7m-18.9-6.7c-.5 4.5-8.7 14.7-18 6.7" stroke-linecap="round"/></g></svg>