<svg width="303" height="94" viewBox="0 0 303 94" xmlns="http://www.w3.org/2000/svg"><defs><linearGradient x1=".015%" y1="49.998%" x2="100.024%" y2="49.998%" id="a"><stop stop-color="#201351" offset="0%"/><stop stop-color="#201351" offset="25%"/><stop stop-color="#451950" offset="34.32%"/><stop stop-color="#791C46" offset="46.8%"/><stop stop-color="#A51B36" offset="58.07%"/><stop stop-color="#C61526" offset="67.71%"/><stop stop-color="#DB0B1A" offset="75.33%"/><stop stop-color="#E30613" offset="80%"/><stop stop-color="#E30613" offset="100%"/></linearGradient></defs><path d="M136 36.1c-4.4 0-8.6 1.9-11.1 4.5V18.9h-7.1v52.6h7.1v-3.6c2.6 2.6 6.7 4.5 11.1 4.5 10 0 17.4-7.8 17.4-18.1S146 36.1 136 36.1zm-.8 30c-6.4 0-11.1-5-11.1-11.8 0-6.8 4.7-11.8 11.1-11.8 6.8 0 11 5.6 11 11.8.1 6.2-4.2 11.8-11 11.8zm39.9-30c9.9 0 17.8 8.3 17.1 20.6h-27c.9 5.1 5 9.3 10.8 9.3 4.4 0 7.4-1.6 9.8-4.2l4.7 4.4c-3.5 4.1-8.4 6.1-14.4 6.1-10.7 0-18.2-7.8-18.2-18.1 0-10.2 7.2-18.1 17.2-18.1zm-9.9 15.2h19.6c-.7-5.3-4.6-9.1-9.7-9.1-5.2 0-9 3.8-9.9 9.1zm49.4-15.2c7.8 0 13 4.9 12.9 14.5v20.8h-7.1V52.3c0-6.6-2.1-9.9-8-9.9-4.5 0-8.2 3.3-8.2 9.9v19.1h-7.1V37h7.1v3.5c2.6-3 6.4-4.4 10.4-4.4zm35 0c9.9 0 17.8 8.3 17.1 20.6h-27c.9 5.1 5 9.3 10.8 9.3 4.4 0 7.4-1.6 9.8-4.2l4.7 4.4c-3.5 4.1-8.4 6.1-14.4 6.1-10.7 0-18.2-7.8-18.2-18.1 0-10.2 7.2-18.1 17.2-18.1zm-9.9 15.2h19.6c-.7-5.3-4.6-9.1-9.7-9.1-5.2 0-9 3.8-9.9 9.1zm50.5-.5h12.6v5.9h-12.6v12.7h-6.1V56.7h-12.6v-5.9h12.6V38.1h6.1v12.7zM32.9 7.1h4.5v81.4h-4.5V7.1zM.9 36.3h20.7v4.5H.9v-4.5zm48.3 0h40.2v4.5H49.2v-4.5z" fill="#201351"/><path d="M7.8 7.8h77.1v78.5H7.8V7.8zM.6 93.5h91.5V.6H.6v92.9z" fill="url(#a)"/><path d="M21.9 48.6V29.1l10 9.8-10 9.7zm13.3-12.9L17.4 18.3v41.2l17.7-17.3 3.4-3.3 10-9.8v19.5L41.8 42l-3.3 3.2L53 59.4V18.3L35.2 35.7z" fill="#E30613"/></svg>